<?xml version="1.0" encoding="UTF-8" standalone="no"?>
<!-- Created with Inkscape (http://www.inkscape.org/) -->

<svg
   xmlns:dc="http://purl.org/dc/elements/1.1/"
   xmlns:cc="http://creativecommons.org/ns#"
   xmlns:rdf="http://www.w3.org/1999/02/22-rdf-syntax-ns#"
   xmlns:svg="http://www.w3.org/2000/svg"
   xmlns="http://www.w3.org/2000/svg"
   xmlns:xlink="http://www.w3.org/1999/xlink"
   xmlns:sodipodi="http://sodipodi.sourceforge.net/DTD/sodipodi-0.dtd"
   xmlns:inkscape="http://www.inkscape.org/namespaces/inkscape"
   width="64.416718mm"
   height="39.544338mm"
   viewBox="0 0 228.24821 140.11773"
   id="svg2"
   version="1.1"
   inkscape:version="0.91 r13725"
   sodipodi:docname="logo.svg">
  <defs
     id="defs4">
    <linearGradient
       inkscape:collect="always"
       id="linearGradient4230">
      <stop
         style="stop-color:#0000ff;stop-opacity:1;"
         offset="0"
         id="stop4232" />
      <stop
         style="stop-color:#00ff12;stop-opacity:0.99408287"
         offset="1"
         id="stop4234" />
    </linearGradient>
    <linearGradient
       inkscape:collect="always"
       id="linearGradient4222">
      <stop
         style="stop-color:#ff0000;stop-opacity:1"
         offset="0"
         id="stop4224" />
      <stop
         style="stop-color:#ffff00;stop-opacity:1"
         offset="1"
         id="stop4226" />
    </linearGradient>
    <radialGradient
       inkscape:collect="always"
       xlink:href="#linearGradient4222"
       id="radialGradient4228"
       cx="146.0197"
       cy="132.0215"
       fx="146.0197"
       fy="132.0215"
       r="58.38974"
       gradientTransform="matrix(1.9841102,0.01636305,-0.01252128,1.5182749,-85.764919,-34.50181)"
       gradientUnits="userSpaceOnUse" />
    <linearGradient
       inkscape:collect="always"
       xlink:href="#linearGradient4230"
       id="linearGradient4236"
       x1="146.23454"
       y1="96.502586"
       x2="145.9285"
       y2="109.80209"
       gradientUnits="userSpaceOnUse"
       gradientTransform="matrix(1.6512555,0,0,1.6512555,-38.698048,-3.2235591)" />
  </defs>
  <sodipodi:namedview
     id="base"
     pagecolor="#ffffff"
     bordercolor="#666666"
     borderopacity="1.0"
     inkscape:pageopacity="0.0"
     inkscape:pageshadow="2"
     inkscape:zoom="1.0944772"
     inkscape:cx="64.449247"
     inkscape:cy="-26.044825"
     inkscape:document-units="px"
     inkscape:current-layer="layer1"
     showgrid="false"
     inkscape:window-width="1304"
     inkscape:window-height="745"
     inkscape:window-x="-8"
     inkscape:window-y="-8"
     inkscape:window-maximized="1"
     fit-margin-top="0"
     fit-margin-left="0"
     fit-margin-right="0"
     fit-margin-bottom="0" />
  <metadata
     id="metadata7">
    <rdf:RDF>
      <cc:Work
         rdf:about="">
        <dc:format>image/svg+xml</dc:format>
        <dc:type
           rdf:resource="http://purl.org/dc/dcmitype/StillImage" />
        <dc:title></dc:title>
      </cc:Work>
    </rdf:RDF>
  </metadata>
  <g
     inkscape:label="Layer 1"
     inkscape:groupmode="layer"
     id="layer1"
     transform="translate(-86.837743,-36.884197)">
    <path
       style="opacity:1;fill:url(#linearGradient4236);fill-opacity:1;stroke:none;stroke-width:1.5;stroke-linecap:round;stroke-linejoin:miter;stroke-miterlimit:4;stroke-dasharray:none;stroke-opacity:1"
       d="m 297.6935,164.84073 -191.55843,0 10.88659,10.383 c 23.01074,-13.83971 29.34595,1.23914 29.34595,1.23914 22.25798,-15.49962 26.79797,0 26.79797,0 20.67979,-15.1094 27.55276,0.26961 27.55276,0.26961 22.25785,-15.52022 26.4204,0.26945 26.4204,0.26945 24.14407,-15.81512 27.55276,-0.26945 27.55276,-0.26945 23.01336,-17.70112 30.66258,-1.13161 30.66258,-1.13161 z"
       id="rect3336"
       inkscape:connector-curvature="0"
       sodipodi:nodetypes="cccccccccc"
       inkscape:export-xdpi="90"
       inkscape:export-ydpi="90" />
    <path
       id="path3387"
       style="opacity:1;fill:url(#radialGradient4228);fill-opacity:1;stroke:none;stroke-width:0.5;stroke-linecap:round;stroke-linejoin:miter;stroke-miterlimit:4;stroke-dasharray:none;stroke-opacity:1"
       d="m 286.56868,71.883853 c -7.58966,23.661921 -36.62606,6.192864 -39.30478,32.533497 l 3.35334,5.04629 c 4.13554,-22.159491 36.1828,-8.12129 35.95144,-37.579787 z m -131.76528,33.095177 -2.9982,5.23635 c -24.55484,1.7858 -11.87213,-24.238934 -43.12373,-27.810544 29.24882,-9.685526 25.04519,24.057274 46.12193,22.574194 z m 160.28256,5.73964 c -20.09031,16.96515 -42.61201,-5.38359 -52.88039,17.38543 l 0.81668,6.07434 c 12.24387,-20.7842 38.96884,6.1952 52.06371,-23.45977 z M 250.14557,48.423381 c 1.78581,23.661921 -29.1223,26.305926 -25.55068,44.16398 l 4.89788,3.56661 c -1.48086,-18.020391 28.33457,-22.333189 20.6528,-47.73059 z m -107.94963,79.917849 -2.48549,5.78967 c -32.14449,3.12516 -15.37078,-15.51823 -52.872707,-16.85759 26.647247,-8.88736 31.798587,14.73838 55.358197,11.06792 z m 34.19943,-36.671615 -5.0562,3.292934 c -17.85805,-0.446453 -3.37394,-30.129459 -25.69651,-44.415903 29.9062,4.083894 13.94904,38.95988 30.75271,41.122969 z m 27.98299,-3.603692 -6.02556,8.72e-4 c -14.73291,-9.82193 10.66907,-28.413579 -0.0457,-51.182598 17.84974,12.407428 -2.86781,36.777604 6.0713,51.181726 z m -44.35877,53.786607 c 4.25963,-19.13356 21.30422,-33.39807 41.73832,-33.39807 20.56844,0 37.70266,14.45271 41.82066,33.77612 l 5.39101,-2.68552 c -5.2386,-21.1987 -24.41323,-36.95417 -47.21167,-36.95417 -22.78093,0 -41.94361,15.73125 -47.19959,36.90528 z m 13.04271,6.17462 c 1.92659,-17.61802 15.77906,-26.1224 29.87262,-26.31783 14.09356,-0.19544 26.62423,11.2495 28.32886,26.05328 l 5.58097,-2.38932 C 234.0482,128.53431 219.3743,115.6503 201.7264,115.6503 c -17.52361,1e-5 -32.14972,12.78821 -35.02357,29.53498 z m 10.25001,4.76184 c -0.0432,-0.51799 -0.0651,-1.04217 -0.0651,-1.5717 0,-10.25721 8.2535,-18.50689 18.51073,-18.50689 10.2572,0 18.5107,8.24968 18.5107,18.50689 0,0.57673 -0.0262,1.14712 -0.0772,1.71006 l 5.92232,-2.66243 c -0.50305,-12.98747 -11.24865,-23.41809 -24.35586,-23.41809 -13.10031,0 -23.84147,10.41961 -24.35508,23.39752 z m 27.71586,-1.57077 a 9.2696846,9.2696846 0 0 1 -9.26968,9.26969 9.2696846,9.2696846 0 0 1 -9.26968,-9.26969 9.2696846,9.2696846 0 0 1 9.26968,-9.26969 9.2696846,9.2696846 0 0 1 9.26968,9.26969 z"
       inkscape:export-xdpi="90"
       inkscape:export-ydpi="90"
       inkscape:connector-curvature="0" />
  </g>
</svg>
