<?xml version="1.0" encoding="UTF-8" standalone="no"?>
<!-- Created with Inkscape (http://www.inkscape.org/) -->

<svg
   xmlns:dc="http://purl.org/dc/elements/1.1/"
   xmlns:cc="http://creativecommons.org/ns#"
   xmlns:rdf="http://www.w3.org/1999/02/22-rdf-syntax-ns#"
   xmlns:svg="http://www.w3.org/2000/svg"
   xmlns="http://www.w3.org/2000/svg"
   xmlns:sodipodi="http://sodipodi.sourceforge.net/DTD/sodipodi-0.dtd"
   xmlns:inkscape="http://www.inkscape.org/namespaces/inkscape"
   id="svg2"
   version="1.1"
   inkscape:version="0.91 r13725"
   width="220.3125"
   height="118.125"
   viewBox="0 0 220.3125 118.125"
   sodipodi:docname="camosunLogo.svg">
  <metadata
     id="metadata8">
    <rdf:RDF>
      <cc:Work
         rdf:about="">
        <dc:format>image/svg+xml</dc:format>
        <dc:type
           rdf:resource="http://purl.org/dc/dcmitype/StillImage" />
        <dc:title></dc:title>
      </cc:Work>
    </rdf:RDF>
  </metadata>
  <defs
     id="defs6" />
  <sodipodi:namedview
     pagecolor="#ffffff"
     bordercolor="#666666"
     borderopacity="1"
     objecttolerance="10"
     gridtolerance="10"
     guidetolerance="10"
     inkscape:pageopacity="0"
     inkscape:pageshadow="2"
     inkscape:window-width="1304"
     inkscape:window-height="745"
     id="namedview4"
     showgrid="false"
     inkscape:zoom="2.4465608"
     inkscape:cx="110.15625"
     inkscape:cy="59.0625"
     inkscape:window-x="-8"
     inkscape:window-y="-8"
     inkscape:window-maximized="1"
     inkscape:current-layer="svg2" />
  <g
     inkscape:groupmode="layer"
     id="layer1"
     inkscape:label="logo">
    <path
       style="fill:#008b8b;fill-rule:evenodd;stroke:none;stroke-width:1px;stroke-linecap:butt;stroke-linejoin:miter;stroke-opacity:1;fill-opacity:1"
       d="M 72.142085,77.864403 88.900303,92.783304 C 20.24658,141.45953 -28.934644,28.903105 52.727076,11.240268 53.748919,11.0359 53.748919,12.875216 53.748919,12.875216 9.8022132,17.794585 4.9193683,83.467005 51.705234,93.39641 26.959627,86.92073 12.670848,41.691176 49.45718,25.750433 c 0.613105,0 0.204368,1.839316 0.204368,1.839316 C 17.291227,40.01764 32.298733,95.066423 72.142085,77.864403 Z"
       id="path3339"
       inkscape:connector-curvature="0"
       sodipodi:nodetypes="cccccccc" />
    <path
       style="fill:#00519b;fill-rule:evenodd;stroke:none;stroke-width:1px;stroke-linecap:butt;stroke-linejoin:miter;stroke-opacity:1;fill-opacity:1"
       d="m 63.354239,50.479022 2.350238,-1.9415 c -3.678633,-5.415766 -15.225454,-4.08737 -15.225454,4.904844 0,8.992215 11.240267,10.422794 15.225454,4.393923 l -1.941501,-2.043685 c -3.780818,3.780817 -7.766003,1.226211 -7.766004,-2.350238 -10e-7,-3.680052 4.189554,-6.846345 7.357267,-2.963344 z"
       id="path3341"
       inkscape:connector-curvature="0"
       sodipodi:nodetypes="ccsccsc" />
    <path
       style="fill:#00519b;fill-rule:evenodd;stroke:none;stroke-width:1px;stroke-linecap:butt;stroke-linejoin:miter;stroke-opacity:1;fill-opacity:1"
       d="M 77.046875 45.675781 L 70.916016 61.003906 L 75.513672 61.003906 L 76.740234 58.550781 L 80.623047 58.550781 L 81.748047 61.003906 L 87.980469 61.003906 L 81.644531 45.675781 L 77.046875 45.675781 z M 78.886719 52.011719 L 79.908203 55.384766 L 77.761719 55.384766 L 78.886719 52.011719 z "
       id="path3343" />
    <path
       style="fill:#00519b;fill-rule:evenodd;stroke:none;stroke-width:1px;stroke-linecap:butt;stroke-linejoin:miter;stroke-opacity:1;fill-opacity:1"
       d="m 92.987673,61.004001 2.452422,-15.12327 5.109215,-0.102184 2.65679,7.050713 2.75897,-6.948529 4.90485,-0.102184 2.55461,15.225454 -5.62014,0 -0.40874,-7.050714 -2.35023,7.050714 -4.49611,0 -2.452424,-7.459451 -0.306553,7.459451 z"
       id="path3347"
       inkscape:connector-curvature="0"
       sodipodi:nodetypes="cccccccccccccc" />
    <path
       style="fill:#00519b;fill-rule:evenodd;stroke:none;stroke-width:1px;stroke-linecap:butt;stroke-linejoin:miter;stroke-opacity:1;fill-opacity:1"
       d="M 128.24219 45.472656 C 121.90692 45.583802 119.86133 49.45622 119.86133 53.441406 C 119.86133 57.426592 122.21332 61.310546 128.24219 61.310547 C 134.1724 61.310547 136.41663 56.917536 136.31445 53.136719 C 136.23715 50.274781 134.0667 45.370471 128.24219 45.472656 z M 128.13867 48.333984 C 130.03528 48.356924 130.69336 49.558404 130.69336 53.441406 C 130.69336 57.223604 129.77187 58.297211 127.93555 58.244141 C 126.09923 58.191069 125.48245 57.275294 125.48242 53.339844 C 125.48239 49.404394 126.24206 48.311044 128.13867 48.333984 z "
       id="path3349" />
    <path
       style="fill:#00519b;fill-rule:evenodd;stroke:none;stroke-width:1px;stroke-linecap:butt;stroke-linejoin:miter;stroke-opacity:1;fill-opacity:1"
       d="m 154.40041,50.070285 1.83932,-1.634948 c -2.86117,-4.700476 -12.9774,-3.780817 -12.87522,2.043685 0.10219,5.824503 7.45945,3.372081 7.56164,6.23324 0.10218,2.861159 -5.72232,1.124027 -5.00703,-0.204368 0.20437,-0.204369 -2.96334,-0.102185 -2.96334,-0.102185 -0.10219,4.700476 4.70047,5.109213 7.25508,5.109213 2.35911,1e-6 6.64754,-1.635146 6.53979,-5.211397 -0.16937,-5.621297 -7.766,-3.883002 -7.766,-6.335424 0,-2.452422 3.26989,-2.043685 5.41576,0.102184 z"
       id="path3353"
       inkscape:connector-curvature="0"
       sodipodi:nodetypes="ccssccsssc" />
    <path
       style="fill:#00519b;fill-rule:evenodd;stroke:none;stroke-width:1px;stroke-linecap:butt;stroke-linejoin:miter;stroke-opacity:1;fill-opacity:1"
       d="m 164.51666,45.778547 0,12.466479 c 0,1.226211 4.18955,5.620134 9.7075,1.124027 0.10218,0 0,1.634948 0,1.634948 l 5.51795,0 0,-15.12327 -6.02887,0 0,10.831531 c -1.3284,1.737132 -3.2699,1.634948 -3.98519,-0.102184 -0.20437,-0.510921 -0.10218,-10.831531 -0.10218,-10.831531 z"
       id="path3355"
       inkscape:connector-curvature="0"
       sodipodi:nodetypes="ccccccccccc" />
    <path
       style="fill:#00519b;fill-rule:evenodd;stroke:none;stroke-width:1px;stroke-linecap:butt;stroke-linejoin:miter;stroke-opacity:1;fill-opacity:1"
       d="m 188.12122,61.106185 0.10218,-15.429823 4.08737,0 5.8245,6.335424 -0.10218,-6.335424 4.49611,0 0.20436,15.327639 -3.67862,0 -6.64199,-7.868188 0,7.970372 z"
       id="path3357"
       inkscape:connector-curvature="0"
       sodipodi:nodetypes="ccccccccccc" />
    <path
       style="color:#000000;font-style:normal;font-variant:normal;font-weight:normal;font-stretch:normal;font-size:medium;line-height:normal;font-family:sans-serif;text-indent:0;text-align:start;text-decoration:none;text-decoration-line:none;text-decoration-style:solid;text-decoration-color:#000000;letter-spacing:normal;word-spacing:normal;text-transform:none;direction:ltr;block-progression:tb;writing-mode:lr-tb;baseline-shift:baseline;text-anchor:start;white-space:normal;clip-rule:nonzero;display:inline;overflow:visible;visibility:visible;opacity:1;isolation:auto;mix-blend-mode:normal;color-interpolation:sRGB;color-interpolation-filters:linearRGB;solid-color:#000000;solid-opacity:1;fill:#00519b;fill-opacity:1;fill-rule:evenodd;stroke:none;stroke-width:2;stroke-linecap:butt;stroke-linejoin:miter;stroke-miterlimit:4;stroke-dasharray:none;stroke-dashoffset:0;stroke-opacity:1;color-rendering:auto;image-rendering:auto;shape-rendering:auto;text-rendering:auto;enable-background:accumulate"
       d="m 90.964844,69.921875 c -0.813272,-0.08956 -1.686211,0.05429 -2.5,0.367187 -1.627578,0.625791 -3.119141,2.213438 -3.119141,4.509766 0,2.534733 1.418742,4.243191 3.0625,4.921875 1.643758,0.678684 3.441566,0.566294 4.703125,-0.324219 l -1.152344,-1.632812 c -0.475572,0.335698 -1.772326,0.529171 -2.789062,0.109375 -1.016737,-0.419796 -1.824219,-1.215028 -1.824219,-3.074219 0,-1.485798 0.806725,-2.246854 1.835938,-2.642578 1.029213,-0.395724 2.17828,-0.144644 2.460937,0.158203 l 1.462891,-1.365234 C 92.531508,70.33426 91.778116,70.011433 90.964844,69.921875 Z"
       id="path3361"
       inkscape:connector-curvature="0" />
    <path
       style="color:#000000;font-style:normal;font-variant:normal;font-weight:normal;font-stretch:normal;font-size:medium;line-height:normal;font-family:sans-serif;text-indent:0;text-align:start;text-decoration:none;text-decoration-line:none;text-decoration-style:solid;text-decoration-color:#000000;letter-spacing:normal;word-spacing:normal;text-transform:none;direction:ltr;block-progression:tb;writing-mode:lr-tb;baseline-shift:baseline;text-anchor:start;white-space:normal;clip-rule:nonzero;display:inline;overflow:visible;visibility:visible;opacity:1;isolation:auto;mix-blend-mode:normal;color-interpolation:sRGB;color-interpolation-filters:linearRGB;solid-color:#000000;solid-opacity:1;fill:#00519b;fill-opacity:1;fill-rule:evenodd;stroke:none;stroke-width:2;stroke-linecap:butt;stroke-linejoin:miter;stroke-miterlimit:4;stroke-dasharray:none;stroke-dashoffset:0;stroke-opacity:1;color-rendering:auto;image-rendering:auto;shape-rendering:auto;text-rendering:auto;enable-background:accumulate"
       d="m 103.35547,70.121094 c -1.06815,0.05934 -2.189,0.355565 -3.07813,1.125 -0.889121,0.769434 -1.443356,2.00639 -1.443356,3.552734 0,1.482242 0.337908,2.773119 1.121094,3.726563 0.783182,0.953444 2.002222,1.46289 3.353512,1.46289 1.39676,0 2.62771,-0.600784 3.4336,-1.554687 0.80588,-0.953903 1.20189,-2.230274 1.14062,-3.578125 -0.0589,-1.294985 -0.44509,-2.472833 -1.2207,-3.34961 -0.77561,-0.876776 -1.94092,-1.384765 -3.25195,-1.384765 l -0.0273,0 -0.0273,0 z m 0.0781,2.009765 c 0.81534,0.0068 1.33633,0.253661 1.73047,0.699219 0.39951,0.451619 0.67934,1.164118 0.72266,2.117188 0.0409,0.900201 -0.226,1.667543 -0.67188,2.195312 -0.44587,0.527769 -1.05494,0.845703 -1.90625,0.845703 -0.89675,0 -1.41666,-0.255286 -1.80859,-0.732422 -0.39193,-0.477135 -0.66602,-1.282482 -0.66602,-2.457031 0,-1.110446 0.31269,-1.660877 0.75196,-2.041016 0.43148,-0.3734 1.09376,-0.57884 1.84765,-0.626953 z"
       id="path3363"
       inkscape:connector-curvature="0" />
    <path
       style="color:#000000;font-style:normal;font-variant:normal;font-weight:normal;font-stretch:normal;font-size:medium;line-height:normal;font-family:sans-serif;text-indent:0;text-align:start;text-decoration:none;text-decoration-line:none;text-decoration-style:solid;text-decoration-color:#000000;letter-spacing:normal;word-spacing:normal;text-transform:none;direction:ltr;block-progression:tb;writing-mode:lr-tb;baseline-shift:baseline;text-anchor:start;white-space:normal;clip-rule:nonzero;display:inline;overflow:visible;visibility:visible;opacity:1;isolation:auto;mix-blend-mode:normal;color-interpolation:sRGB;color-interpolation-filters:linearRGB;solid-color:#000000;solid-opacity:1;fill:#00519b;fill-opacity:1;fill-rule:evenodd;stroke:none;stroke-width:2;stroke-linecap:butt;stroke-linejoin:miter;stroke-miterlimit:4;stroke-dasharray:none;stroke-dashoffset:0;stroke-opacity:1;color-rendering:auto;image-rendering:auto;shape-rendering:auto;text-rendering:auto;enable-background:accumulate"
       d="m 115.95703,70.583984 -2,0.05078 0.22852,9.148437 5.42773,0 0,-2 -3.47656,0 -0.17969,-7.199219 z"
       id="path3365"
       inkscape:connector-curvature="0" />
    <path
       style="color:#000000;font-style:normal;font-variant:normal;font-weight:normal;font-stretch:normal;font-size:medium;line-height:normal;font-family:sans-serif;text-indent:0;text-align:start;text-decoration:none;text-decoration-line:none;text-decoration-style:solid;text-decoration-color:#000000;letter-spacing:normal;word-spacing:normal;text-transform:none;direction:ltr;block-progression:tb;writing-mode:lr-tb;baseline-shift:baseline;text-anchor:start;white-space:normal;clip-rule:nonzero;display:inline;overflow:visible;visibility:visible;opacity:1;isolation:auto;mix-blend-mode:normal;color-interpolation:sRGB;color-interpolation-filters:linearRGB;solid-color:#000000;solid-opacity:1;fill:#00519b;fill-opacity:1;fill-rule:evenodd;stroke:none;stroke-width:2;stroke-linecap:butt;stroke-linejoin:miter;stroke-miterlimit:4;stroke-dasharray:none;stroke-dashoffset:0;stroke-opacity:1;color-rendering:auto;image-rendering:auto;shape-rendering:auto;text-rendering:auto;enable-background:accumulate"
       d="m 127.13867,70.583984 -1.99805,0.05078 0.22852,9.148437 5.42774,0 0,-2 -3.47657,0 -0.18164,-7.199219 z"
       id="path3367"
       inkscape:connector-curvature="0" />
    <path
       style="color:#000000;font-style:normal;font-variant:normal;font-weight:normal;font-stretch:normal;font-size:medium;line-height:normal;font-family:sans-serif;text-indent:0;text-align:start;text-decoration:none;text-decoration-line:none;text-decoration-style:solid;text-decoration-color:#000000;letter-spacing:normal;word-spacing:normal;text-transform:none;direction:ltr;block-progression:tb;writing-mode:lr-tb;baseline-shift:baseline;text-anchor:start;white-space:normal;clip-rule:nonzero;display:inline;overflow:visible;visibility:visible;opacity:1;isolation:auto;mix-blend-mode:normal;color-interpolation:sRGB;color-interpolation-filters:linearRGB;solid-color:#000000;solid-opacity:1;fill:#00519b;fill-opacity:1;fill-rule:evenodd;stroke:none;stroke-width:2;stroke-linecap:butt;stroke-linejoin:miter;stroke-miterlimit:4;stroke-dasharray:none;stroke-dashoffset:0;stroke-opacity:1;color-rendering:auto;image-rendering:auto;shape-rendering:auto;text-rendering:auto;enable-background:accumulate"
       d="M 136.8457 70.427734 L 136.8457 80.089844 L 141.93359 80.089844 L 141.93359 78.089844 L 138.8457 78.089844 L 138.8457 76.003906 L 141.21875 76.003906 L 141.21875 74.003906 L 138.8457 74.003906 L 138.8457 72.427734 L 141.42383 72.427734 L 141.42383 70.427734 L 136.8457 70.427734 z "
       id="path3369" />
    <path
       style="color:#000000;font-style:normal;font-variant:normal;font-weight:normal;font-stretch:normal;font-size:medium;line-height:normal;font-family:sans-serif;text-indent:0;text-align:start;text-decoration:none;text-decoration-line:none;text-decoration-style:solid;text-decoration-color:#000000;letter-spacing:normal;word-spacing:normal;text-transform:none;direction:ltr;block-progression:tb;writing-mode:lr-tb;baseline-shift:baseline;text-anchor:start;white-space:normal;clip-rule:nonzero;display:inline;overflow:visible;visibility:visible;opacity:1;isolation:auto;mix-blend-mode:normal;color-interpolation:sRGB;color-interpolation-filters:linearRGB;solid-color:#000000;solid-opacity:1;fill:#00519b;fill-opacity:1;fill-rule:evenodd;stroke:none;stroke-width:2;stroke-linecap:butt;stroke-linejoin:miter;stroke-miterlimit:4;stroke-dasharray:none;stroke-dashoffset:0;stroke-opacity:1;color-rendering:auto;image-rendering:auto;shape-rendering:auto;text-rendering:auto;enable-background:accumulate"
       d="m 153.57227,70.246094 c -0.79778,-0.03872 -1.61846,0.0503 -2.4043,0.328125 -1.57168,0.555643 -2.90149,2.055291 -3.07813,4.351562 -0.17693,2.300181 0.98993,3.9644 2.56055,4.605469 1.57062,0.641069 3.39021,0.513032 5.00586,0.123047 l 0.041,-0.0098 0.041,-0.01367 c 0.40868,-0.136224 0.6367,-0.439206 0.75781,-0.667968 0.12111,-0.228762 0.17242,-0.432402 0.21289,-0.634766 0.081,-0.404728 0.0957,-0.811719 0.0957,-1.205078 0,-0.786719 -0.082,-1.515625 -0.082,-1.515625 l -1.98828,0.220703 c 0,0 0.0703,0.651061 0.0703,1.294922 0,0.253067 -0.0223,0.459634 -0.0449,0.638672 -1.22847,0.234086 -2.51811,0.258951 -3.35352,-0.08203 -0.93289,-0.380774 -1.45188,-0.914605 -1.32227,-2.59961 0.12992,-1.688914 0.79262,-2.282624 1.75,-2.621094 0.95739,-0.338469 2.31481,-0.232303 3.375,0.121094 l 0.63086,-1.898437 c -0.69611,-0.232039 -1.4698,-0.396829 -2.26757,-0.435547 z"
       id="path3373"
       inkscape:connector-curvature="0" />
    <path
       id="path4204"
       d="m 163.05006,70.427734 0,9.66211 5.08789,0 0,-2 -3.08789,0 0,-2.085938 2.37305,0 0,-2 -2.37305,0 0,-1.576172 2.57813,0 0,-2 -4.57813,0 z"
       style="color:#000000;font-style:normal;font-variant:normal;font-weight:normal;font-stretch:normal;font-size:medium;line-height:normal;font-family:sans-serif;text-indent:0;text-align:start;text-decoration:none;text-decoration-line:none;text-decoration-style:solid;text-decoration-color:#000000;letter-spacing:normal;word-spacing:normal;text-transform:none;direction:ltr;block-progression:tb;writing-mode:lr-tb;baseline-shift:baseline;text-anchor:start;white-space:normal;clip-rule:nonzero;display:inline;overflow:visible;visibility:visible;opacity:1;isolation:auto;mix-blend-mode:normal;color-interpolation:sRGB;color-interpolation-filters:linearRGB;solid-color:#000000;solid-opacity:1;fill:#00519b;fill-opacity:1;fill-rule:evenodd;stroke:none;stroke-width:2;stroke-linecap:butt;stroke-linejoin:miter;stroke-miterlimit:4;stroke-dasharray:none;stroke-dashoffset:0;stroke-opacity:1;color-rendering:auto;image-rendering:auto;shape-rendering:auto;text-rendering:auto;enable-background:accumulate"
       inkscape:connector-curvature="0" />
  </g>
</svg>
