<?xml version="1.0" encoding="UTF-8" standalone="no"?>
<!-- Created with Inkscape (http://www.inkscape.org/) -->

<svg
   xmlns:dc="http://purl.org/dc/elements/1.1/"
   xmlns:cc="http://creativecommons.org/ns#"
   xmlns:rdf="http://www.w3.org/1999/02/22-rdf-syntax-ns#"
   xmlns:svg="http://www.w3.org/2000/svg"
   xmlns="http://www.w3.org/2000/svg"
   xmlns:xlink="http://www.w3.org/1999/xlink"
   xmlns:sodipodi="http://sodipodi.sourceforge.net/DTD/sodipodi-0.dtd"
   xmlns:inkscape="http://www.inkscape.org/namespaces/inkscape"
   width="227.54117mm"
   height="139.68378mm"
   viewBox="0 0 806.24823 494.9425"
   id="svg2"
   version="1.1"
   inkscape:version="0.91 r13725"
   sodipodi:docname="logo.svg"
   inkscape:export-filename="C:\Users\annarose\school\0_finalProject\code\techHorizons\images\logo.png"
   inkscape:export-xdpi="90"
   inkscape:export-ydpi="90">
  <defs
     id="defs4">
    <linearGradient
       inkscape:collect="always"
       id="linearGradient4230">
      <stop
         style="stop-color:#0000ff;stop-opacity:1;"
         offset="0"
         id="stop4232" />
      <stop
         style="stop-color:#00ff12;stop-opacity:0.99408287"
         offset="1"
         id="stop4234" />
    </linearGradient>
    <linearGradient
       inkscape:collect="always"
       id="linearGradient4222">
      <stop
         style="stop-color:#ff0000;stop-opacity:1"
         offset="0"
         id="stop4224" />
      <stop
         style="stop-color:#ffff00;stop-opacity:1"
         offset="1"
         id="stop4226" />
    </linearGradient>
    <radialGradient
       inkscape:collect="always"
       xlink:href="#linearGradient4222"
       id="radialGradient4228"
       cx="146.0197"
       cy="132.0215"
       fx="146.0197"
       fy="132.0215"
       r="58.38974"
       gradientTransform="matrix(7.0085197,0.05779987,-0.04423036,5.3630442,-811.85142,-392.68576)"
       gradientUnits="userSpaceOnUse" />
    <linearGradient
       inkscape:collect="always"
       xlink:href="#linearGradient4230"
       id="linearGradient4236"
       x1="146.23454"
       y1="96.502586"
       x2="145.9285"
       y2="109.80209"
       gradientUnits="userSpaceOnUse"
       gradientTransform="matrix(5.8327676,0,0,5.8327676,-645.59528,-282.20123)" />
  </defs>
  <sodipodi:namedview
     id="base"
     pagecolor="#ffffff"
     bordercolor="#666666"
     borderopacity="1.0"
     inkscape:pageopacity="0.0"
     inkscape:pageshadow="2"
     inkscape:zoom="1.0944772"
     inkscape:cx="168.88625"
     inkscape:cy="151.36649"
     inkscape:document-units="px"
     inkscape:current-layer="layer1"
     showgrid="false"
     inkscape:window-width="1304"
     inkscape:window-height="745"
     inkscape:window-x="-8"
     inkscape:window-y="-8"
     inkscape:window-maximized="1"
     fit-margin-top="0"
     fit-margin-left="0"
     fit-margin-right="0"
     fit-margin-bottom="0" />
  <metadata
     id="metadata7">
    <rdf:RDF>
      <cc:Work
         rdf:about="">
        <dc:format>image/svg+xml</dc:format>
        <dc:type
           rdf:resource="http://purl.org/dc/dcmitype/StillImage" />
        <dc:title></dc:title>
      </cc:Work>
    </rdf:RDF>
  </metadata>
  <g
     inkscape:label="Layer 1"
     inkscape:groupmode="layer"
     id="layer1"
     transform="translate(202.16226,140.52928)">
    <path
       style="opacity:1;fill:url(#linearGradient4236);fill-opacity:1;stroke:none;stroke-width:1.5;stroke-linecap:round;stroke-linejoin:miter;stroke-miterlimit:4;stroke-dasharray:none;stroke-opacity:1"
       d="m 542.6499,311.45621 -676.64758,0 38.454855,36.67622 c 81.281238,-48.88674 103.6590014,4.37768 103.6590014,4.37768 78.6241066,-54.74871 94.6605636,0 94.6605636,0 73.04659,-53.37011 97.32603,0.95165 97.32603,0.95165 78.62152,-54.82133 93.3239,0.95149 93.3239,0.95149 85.28491,-55.86474 97.32603,-0.95149 97.32603,-0.95149 81.29021,-62.52502 108.3111,-3.9956 108.3111,-3.9956 z"
       id="rect3336"
       inkscape:connector-curvature="0"
       sodipodi:nodetypes="cccccccccc"
       inkscape:export-xdpi="90"
       inkscape:export-ydpi="90" />
    <path
       id="path3387"
       style="opacity:1;fill:url(#radialGradient4228);fill-opacity:1;stroke:none;stroke-width:0.5;stroke-linecap:round;stroke-linejoin:miter;stroke-miterlimit:4;stroke-dasharray:none;stroke-opacity:1"
       d="M 503.35336,-16.896887 C 476.5452,66.684842 373.97853,4.9783427 364.51698,98.021982 l 11.84416,17.825668 C 390.97004,37.572675 504.17139,87.159902 503.35336,-16.896887 Z M 37.914614,100.00534 27.32423,118.50101 C -59.411606,124.80966 -14.612351,32.882787 -125.00318,20.266696 -21.686862,-13.9458 -36.535025,105.24542 37.914614,100.00534 Z m 566.171346,20.27345 c -70.96587,59.92789 -150.51883,-19.01572 -186.79143,61.41169 l 2.88592,21.45781 c 43.24779,-73.41688 137.65078,21.88212 183.90551,-82.8695 z M 374.6959,-99.767053 c 6.30577,83.581742 -102.86932,92.9212417 -90.25489,156.001791 L 301.74277,68.83318 C 296.51069,5.1791903 401.83026,-10.055024 374.6959,-99.767053 Z M -6.6188298,182.52873 -15.398528,202.97937 c -113.544692,11.03798 -54.294265,-54.81645 -186.763732,-59.54578 94.12665,-31.39468 112.32293,52.05984 195.5434302,39.09514 z M 114.18523,52.992941 96.323455,64.624674 C 33.245238,63.047653 84.40666,-41.802527 5.555885,-92.266968 111.19434,-77.841333 54.829075,45.352194 114.18523,52.992941 Z m 98.84579,-12.729426 -21.28476,0.001 c -52.04281,-34.6940862 37.68768,-100.36588 -0.1613,-180.793795 63.04934,43.827222 -10.13038,129.910748 21.4461,180.79095 z M 56.340718,230.25474 C 71.38604,162.66744 131.59269,112.28082 203.77513,112.28082 c 72.65202,0 133.1767,51.05167 147.72182,119.30856 l 19.04337,-9.48569 C 352.03662,147.22324 284.30421,91.569718 203.77513,91.569718 c -80.47111,0 -148.15978,55.568612 -166.72679,130.360812 z m 46.069752,21.80952 c 6.80491,-62.23095 55.73909,-92.27161 105.52126,-92.96123 49.78217,-0.68963 94.04504,39.73623 100.06733,92.02909 l 19.71307,-8.44098 C 317.83508,183.21022 266.00156,137.701 203.6627,137.701 c -61.89956,1e-5 -113.56391,45.17066 -123.71478,104.32529 z m 36.20799,16.82181 c -0.15733,-1.83005 -0.23388,-3.68074 -0.23388,-5.55123 0,-36.23253 29.15401,-65.37402 65.38645,-65.37402 36.23016,0 65.38647,29.14149 65.38647,65.37402 0,2.03618 -0.084,4.05157 -0.27682,6.03928 l 20.92109,-9.4048 c -1.77747,-45.87567 -39.73519,-82.72089 -86.03408,-82.72089 -46.27462,0 -84.2163,36.8082 -86.03046,82.6483 z m 97.9024,-5.54741 a 32.743706,32.743706 0 0 1 -32.74515,32.74227 32.743706,32.743706 0 0 1 -32.74226,-32.74227 32.743706,32.743706 0 0 1 32.74226,-32.74516 32.743706,32.743706 0 0 1 32.74515,32.74516 z"
       inkscape:export-xdpi="90"
       inkscape:export-ydpi="90"
       inkscape:connector-curvature="0" />
  </g>
</svg>
